<svg xmlns="http://www.w3.org/2000/svg"><symbol id="laptop" viewBox="0 0 410.5 221.3"><path fill="#231f20" d="M408.7 212.1l-55.3-29V10.7A10.7 10.7 0 0 0 342.7 0H66.8a10.7 10.7 0 0 0-10.7 10.7v172.4l-54.3 29a2.8 2.8 0 0 0-1.8 2.4v3.9a2.8 2.8 0 0 0 2.8 2.8h404.4a3.2 3.2 0 0 0 3.3-3.2v-3.5a2.8 2.8 0 0 0-1.8-2.4zM204.7 2a4.4 4.4 0 0 1 4.4 4.4 4.4 4.4 0 0 1-4.4 4.4 4.4 4.4 0 0 1-4.3-4.4 4.4 4.4 0 0 1 4.3-4.4zM68.3 12.6h272.9v158H68.3z"/></symbol><symbol id="mobile" viewBox="0 0 119.8 222.3"><path fill="#231f20" d="M106.6 0H13.1A13.1 13.1 0 0 0 0 13.1v196.1a13.1 13.1 0 0 0 13.1 13.1h93.5a13.2 13.2 0 0 0 13.2-13.1V13.1A13.2 13.2 0 0 0 106.6 0zm-59 6.7h24.5A1.3 1.3 0 0 1 73.4 8a1.3 1.3 0 0 1-1.3 1.2H47.6A1.2 1.2 0 0 1 46.4 8a1.2 1.2 0 0 1 1.2-1.3zm12.3 211.4a7 7 0 0 1-7.1-7 7.1 7.1 0 0 1 14.2 0 7 7 0 0 1-7.1 7zm51.6-18.6H8.3V15.1h103.2z"/></symbol></svg>