<svg xmlns="http://www.w3.org/2000/svg" width="7.1in" height="1.8in" viewBox="0 0 508.1 128.1"><path fill="#ff4027" d="M132.8 58.9C147.7 89 161.4 108 143.7 108c-15.5 0-35.2-49.1-35.2-49.1h8.5s16.7 38.5 24.4 38.9c5.6.4-7.4-21.7-15.7-38.9zm55.6 49.1l-24-49.1h8.4l24 49.1h-8.4zm173.7-28.8c-11.7-20.1-28.3-20.3-28.3-20.3h-8.3l24 49.1h8.4c4.7 0 13.9-12.1 4.2-28.8zm-7.4 22.4l-17.9-36.8c7.7 2.4 14.9 8.7 19 16.7s3.9 17.4-1.1 20.1zm149.1-22.4c-11.7-20.1-28.2-20.3-28.2-20.3h-8.4l24 49.1h8.4c4.7 0 13.9-12.1 4.2-28.8zm-7.3 22.4l-18-36.8c7.8 2.4 14.9 8.7 19 16.7s3.9 17.4-1 20.1zM316.3 58.9h-8.4 8.4zm29.4 49.1H323l-20.4-41.6-3.7-7.5h22.7l3.7 7.5H311l6.5 13.3h14.3l3.7 7.5h-14.3l6.5 13.3H342l3.7 7.5zM206.2 58.9zm-61.5 0l20.5 41.9h15.9l3.5 7.2h-24.3l-24-49.1h8.4zM479 108l-33.8-33.2 16.2 33.2H453l-24-49.1h8.4l33.8 33.2-16.3-33.2h8.4l24.1 49.1H479zM85 29.2s33.8 47.3 34.8 81.9c.6 20-61.6-24.5-61.6-24.5l-2.9-6.7s49.9 32.2 49.9 13.9c0-20.8-28.6-65-28.6-65z"/><path fill="#ff4027" d="M350.7 128.1h-27.2c-12.5 0-31.3-57-55.5-67.1l23 47h-8.3l-38.5-78.6h8.4l12.7 26c6.1-4 13.7-12.5 3.9-22.9-22-23.6-125.7-16-125.7-16C-13 29.4.3 0 .3 0h34.4c3.2 15.9 108.8 9.7 108.8 9.7 36.3-1 131.3-7.7 142.6 21.6 5.7 15-7 23.5-13.5 26.7 25.6 0 39.7 62.7 78.1 70.1zm64.2-20.1h-8.4l-19.2-39.2-4.4 12.7-15-11.8 18.8 38.3h-8.4l-24-49.1h8.3l15.6 12.3 4.2-12.3h8.4l24.1 49.1zm20.7-30.8c-7.6-13.8-20.3-22.1-27-18.4s-7 17.9.6 31.7 20.2 22.2 26.9 18.5 7.1-17.9-.5-31.8zm-3.3 23.8a4.8 4.8 0 0 1-4.1.6h-.4l-.4-.2a1.1 1.1 0 0 1-.7-.3 19.4 19.4 0 0 1-5.6-4.1 39.6 39.6 0 0 1-5.1-7 47.1 47.1 0 0 1-5.3-12.2 3.6 3.6 0 0 0-.2-1c-.8-4.6-.2-8.3 1.9-9.9a4.8 4.8 0 0 1 4.7-.5h.3l.3.2a17.9 17.9 0 0 1 5.6 3.8v.2a43.5 43.5 0 0 1 5.4 7.2 45 45 0 0 1 5.1 12 10.5 10.5 0 0 1 .4 1.7c.8 4.4.2 7.9-1.9 9.5z"/><path fill="#ff4027" d="M258.2 108l-31.4-32 15.7 32h-8.4L210 58.9h8.4l31.4 32-15.6-32h8.4l24 49.1h-8.4zm-65.9-49.1h-8.4l16.4 49.2h8.4l-5.5-16.4h7.8l13.5 16.4h8.4zm8.5 25.6L198 76l7 8.5z"/></svg>